<?xml version="1.0" encoding="UTF-8" standalone="no"?>
<!DOCTYPE svg PUBLIC "-//W3C//DTD SVG 1.1//EN"
 "http://www.w3.org/Graphics/SVG/1.1/DTD/svg11.dtd">
<!-- Generated by graphviz version 2.42.4 (0)
 -->
<!-- Title: G Pages: 1 -->
<svg width="2442pt" height="993pt"
 viewBox="0.00 0.00 2442.40 993.40" xmlns="http://www.w3.org/2000/svg" xmlns:xlink="http://www.w3.org/1999/xlink">
<g id="graph0" class="graph" transform="scale(1 1) rotate(0) translate(25.2 968.2)">
<title>G</title>
<polygon fill="white" stroke="transparent" points="-25.2,25.2 -25.2,-968.2 2417.2,-968.2 2417.2,25.2 -25.2,25.2"/>
<text text-anchor="middle" x="1196" y="-919.8" font-family="Arial" font-size="24.00">AI DevSecOps Platform Architecture</text>
<g id="clust1" class="cluster">
<title>cluster_scan</title>
<path fill="white" stroke="#cbd5e1" stroke-dasharray="5,2" d="M1300,-673C1300,-673 1708.5,-673 1708.5,-673 1714.5,-673 1720.5,-679 1720.5,-685 1720.5,-685 1720.5,-889 1720.5,-889 1720.5,-895 1714.5,-901 1708.5,-901 1708.5,-901 1300,-901 1300,-901 1294,-901 1288,-895 1288,-889 1288,-889 1288,-685 1288,-685 1288,-679 1294,-673 1300,-673"/>
<text text-anchor="middle" x="1504.25" y="-877.8" font-family="Arial" font-size="24.00">Security Scanning</text>
</g>
<g id="clust2" class="cluster">
<title>cluster_n8n_main</title>
<path fill="white" stroke="#a7f3d0" stroke-dasharray="5,2" d="M20,-533C20,-533 1122,-533 1122,-533 1128,-533 1134,-539 1134,-545 1134,-545 1134,-609 1134,-609 1134,-615 1128,-621 1122,-621 1122,-621 20,-621 20,-621 14,-621 8,-615 8,-609 8,-609 8,-545 8,-545 8,-539 14,-533 20,-533"/>
<text text-anchor="middle" x="571" y="-597.8" font-family="Arial" font-size="24.00">n8n Main Security Workflow (/security&#45;scan)</text>
</g>
<g id="clust3" class="cluster">
<title>cluster_dashboard</title>
<path fill="white" stroke="#bfdbfe" stroke-dasharray="5,2" d="M982,-365C982,-365 1970,-365 1970,-365 1976,-365 1982,-371 1982,-377 1982,-377 1982,-455 1982,-455 1982,-461 1976,-467 1970,-467 1970,-467 982,-467 982,-467 976,-467 970,-461 970,-455 970,-455 970,-377 970,-377 970,-371 976,-365 982,-365"/>
<text text-anchor="middle" x="1476" y="-443.8" font-family="Arial" font-size="24.00">Dashboard Layer</text>
</g>
<g id="clust4" class="cluster">
<title>cluster_n8n_chat</title>
<path fill="white" stroke="#ddd6fe" stroke-dasharray="5,2" d="M1602,-201C1602,-201 2372,-201 2372,-201 2378,-201 2384,-207 2384,-213 2384,-213 2384,-345 2384,-345 2384,-351 2378,-357 2372,-357 2372,-357 1602,-357 1602,-357 1596,-357 1590,-351 1590,-345 1590,-345 1590,-213 1590,-213 1590,-207 1596,-201 1602,-201"/>
<text text-anchor="middle" x="1987" y="-333.8" font-family="Arial" font-size="24.00">n8n AI Chat Assistant Workflow (/ai&#45;chat)</text>
</g>
<g id="clust5" class="cluster">
<title>cluster_ai</title>
<path fill="white" stroke="#fbcfe8" stroke-dasharray="5,2" d="M1270.5,-8C1270.5,-8 1511.5,-8 1511.5,-8 1517.5,-8 1523.5,-14 1523.5,-20 1523.5,-20 1523.5,-224 1523.5,-224 1523.5,-230 1517.5,-236 1511.5,-236 1511.5,-236 1270.5,-236 1270.5,-236 1264.5,-236 1258.5,-230 1258.5,-224 1258.5,-224 1258.5,-20 1258.5,-20 1258.5,-14 1264.5,-8 1270.5,-8"/>
<text text-anchor="middle" x="1391" y="-212.8" font-family="Arial" font-size="24.00">Supported AI Providers</text>
</g>
<!-- developer -->
<g id="node1" class="node">
<title>developer</title>
<path fill="#e0f2fe" stroke="#374151" d="M594.5,-675C594.5,-675 544.5,-675 544.5,-675 538.5,-675 532.5,-669 532.5,-663 532.5,-663 532.5,-651 532.5,-651 532.5,-645 538.5,-639 544.5,-639 544.5,-639 594.5,-639 594.5,-639 600.5,-639 606.5,-645 606.5,-651 606.5,-651 606.5,-663 606.5,-663 606.5,-669 600.5,-675 594.5,-675"/>
<text text-anchor="middle" x="569.5" y="-653.9" font-family="Arial" font-size="12.00">Developer</text>
</g>
<!-- github -->
<g id="node2" class="node">
<title>github</title>
<path fill="#e0f2fe" stroke="#374151" d="M804,-675C804,-675 711,-675 711,-675 705,-675 699,-669 699,-663 699,-663 699,-651 699,-651 699,-645 705,-639 711,-639 711,-639 804,-639 804,-639 810,-639 816,-645 816,-651 816,-651 816,-663 816,-663 816,-669 810,-675 804,-675"/>
<text text-anchor="middle" x="757.5" y="-653.9" font-family="Arial" font-size="12.00">GitHub Repository</text>
</g>
<!-- developer&#45;&gt;github -->
<g id="edge1" class="edge">
<title>developer&#45;&gt;github</title>
<path fill="none" stroke="#4b5563" d="M606.64,-657C606.64,-657 690.97,-657 690.97,-657"/>
<polygon fill="#4b5563" stroke="#4b5563" points="690.97,-659.8 698.97,-657 690.97,-654.2 690.97,-659.8"/>
</g>
<!-- actions -->
<g id="node3" class="node">
<title>actions</title>
<path fill="#dbeafe" stroke="#374151" d="M1085,-676C1085,-676 1010,-676 1010,-676 1004,-676 998,-670 998,-664 998,-664 998,-650 998,-650 998,-644 1004,-638 1010,-638 1010,-638 1085,-638 1085,-638 1091,-638 1097,-644 1097,-650 1097,-650 1097,-664 1097,-664 1097,-670 1091,-676 1085,-676"/>
<text text-anchor="middle" x="1047.5" y="-660.4" font-family="Arial" font-size="12.00">GitHub Actions</text>
<text text-anchor="middle" x="1047.5" y="-647.4" font-family="Arial" font-size="12.00">CI/CD Pipeline</text>
</g>
<!-- github&#45;&gt;actions -->
<g id="edge2" class="edge">
<title>github&#45;&gt;actions</title>
<path fill="none" stroke="#4b5563" d="M816.19,-663C816.19,-663 989.6,-663 989.6,-663"/>
<polygon fill="#4b5563" stroke="#4b5563" points="989.6,-665.8 997.6,-663 989.6,-660.2 989.6,-665.8"/>
</g>
<!-- semgrep -->
<g id="node4" class="node">
<title>semgrep</title>
<path fill="#fee2e2" stroke="#374151" d="M1412.5,-719C1412.5,-719 1369.5,-719 1369.5,-719 1363.5,-719 1357.5,-713 1357.5,-707 1357.5,-707 1357.5,-693 1357.5,-693 1357.5,-687 1363.5,-681 1369.5,-681 1369.5,-681 1412.5,-681 1412.5,-681 1418.5,-681 1424.5,-687 1424.5,-693 1424.5,-693 1424.5,-707 1424.5,-707 1424.5,-713 1418.5,-719 1412.5,-719"/>
<text text-anchor="middle" x="1391" y="-703.4" font-family="Arial" font-size="12.00">Semgrep</text>
<text text-anchor="middle" x="1391" y="-690.4" font-family="Arial" font-size="12.00">SAST</text>
</g>
<!-- actions&#45;&gt;semgrep -->
<g id="edge3" class="edge">
<title>actions&#45;&gt;semgrep</title>
<path fill="none" stroke="#4b5563" d="M1097.08,-655.75C1192.21,-655.75 1391,-655.75 1391,-655.75 1391,-655.75 1391,-672.98 1391,-672.98"/>
<polygon fill="#4b5563" stroke="#4b5563" points="1388.2,-672.98 1391,-680.98 1393.8,-672.98 1388.2,-672.98"/>
</g>
<!-- trivy -->
<g id="node5" class="node">
<title>trivy</title>
<path fill="#fef3c7" stroke="#374151" d="M1474,-859C1474,-859 1308,-859 1308,-859 1302,-859 1296,-853 1296,-847 1296,-847 1296,-833 1296,-833 1296,-827 1302,-821 1308,-821 1308,-821 1474,-821 1474,-821 1480,-821 1486,-827 1486,-833 1486,-833 1486,-847 1486,-847 1486,-853 1480,-859 1474,-859"/>
<text text-anchor="middle" x="1391" y="-843.4" font-family="Arial" font-size="12.00">Trivy</text>
<text text-anchor="middle" x="1391" y="-830.4" font-family="Arial" font-size="12.00">Dependency / Secret / Misconfig</text>
</g>
<!-- actions&#45;&gt;trivy -->
<g id="edge4" class="edge">
<title>actions&#45;&gt;trivy</title>
<path fill="none" stroke="#4b5563" d="M1097.28,-669.25C1171.11,-669.25 1301,-669.25 1301,-669.25 1301,-669.25 1301,-812.74 1301,-812.74"/>
<polygon fill="#4b5563" stroke="#4b5563" points="1298.2,-812.74 1301,-820.74 1303.8,-812.74 1298.2,-812.74"/>
</g>
<!-- zap -->
<g id="node6" class="node">
<title>zap</title>
<path fill="#fce7f3" stroke="#374151" d="M1424,-789C1424,-789 1358,-789 1358,-789 1352,-789 1346,-783 1346,-777 1346,-777 1346,-763 1346,-763 1346,-757 1352,-751 1358,-751 1358,-751 1424,-751 1424,-751 1430,-751 1436,-757 1436,-763 1436,-763 1436,-777 1436,-777 1436,-783 1430,-789 1424,-789"/>
<text text-anchor="middle" x="1391" y="-773.4" font-family="Arial" font-size="12.00">OWASP ZAP</text>
<text text-anchor="middle" x="1391" y="-760.4" font-family="Arial" font-size="12.00">DAST</text>
</g>
<!-- actions&#45;&gt;zap -->
<g id="edge5" class="edge">
<title>actions&#45;&gt;zap</title>
<path fill="none" stroke="#4b5563" d="M1097.1,-662.5C1183.38,-662.5 1352,-662.5 1352,-662.5 1352,-662.5 1352,-742.78 1352,-742.78"/>
<polygon fill="#4b5563" stroke="#4b5563" points="1349.2,-742.78 1352,-750.78 1354.8,-742.78 1349.2,-742.78"/>
</g>
<!-- deploy -->
<g id="node26" class="node">
<title>deploy</title>
<path fill="#ecfccb" stroke="#374151" d="M1455.5,-649C1455.5,-649 1326.5,-649 1326.5,-649 1320.5,-649 1314.5,-643 1314.5,-637 1314.5,-637 1314.5,-623 1314.5,-623 1314.5,-617 1320.5,-611 1326.5,-611 1326.5,-611 1455.5,-611 1455.5,-611 1461.5,-611 1467.5,-617 1467.5,-623 1467.5,-623 1467.5,-637 1467.5,-637 1467.5,-643 1461.5,-649 1455.5,-649"/>
<text text-anchor="middle" x="1391" y="-633.4" font-family="Arial" font-size="12.00">Docker Hub / Kubernetes</text>
<text text-anchor="middle" x="1391" y="-620.4" font-family="Arial" font-size="12.00">Optional CD Deployment</text>
</g>
<!-- actions&#45;&gt;deploy -->
<g id="edge19" class="edge">
<title>actions&#45;&gt;deploy</title>
<path fill="none" stroke="#4b5563" d="M1097.08,-645.33C1097.08,-645.33 1306.48,-645.33 1306.48,-645.33"/>
<polygon fill="#4b5563" stroke="#4b5563" points="1306.48,-648.13 1314.48,-645.33 1306.48,-642.53 1306.48,-648.13"/>
<text text-anchor="middle" x="1196.5" y="-636" font-family="Arial" font-size="10.00">ALLOW</text>
</g>
<!-- stop -->
<g id="node27" class="node">
<title>stop</title>
<path fill="#fee2e2" stroke="#374151" d="M1434.5,-579C1434.5,-579 1347.5,-579 1347.5,-579 1341.5,-579 1335.5,-573 1335.5,-567 1335.5,-567 1335.5,-555 1335.5,-555 1335.5,-549 1341.5,-543 1347.5,-543 1347.5,-543 1434.5,-543 1434.5,-543 1440.5,-543 1446.5,-549 1446.5,-555 1446.5,-555 1446.5,-567 1446.5,-567 1446.5,-573 1440.5,-579 1434.5,-579"/>
<text text-anchor="middle" x="1391" y="-557.9" font-family="Arial" font-size="12.00">Stop Deployment</text>
</g>
<!-- actions&#45;&gt;stop -->
<g id="edge20" class="edge">
<title>actions&#45;&gt;stop</title>
<path fill="none" stroke="#4b5563" d="M1097.44,-641.67C1145.53,-641.67 1211,-641.67 1211,-641.67 1211,-641.67 1211,-560 1211,-560 1211,-560 1327.03,-560 1327.03,-560"/>
<polygon fill="#4b5563" stroke="#4b5563" points="1327.03,-562.8 1335.03,-560 1327.03,-557.2 1327.03,-562.8"/>
<text text-anchor="middle" x="1196.5" y="-588" font-family="Arial" font-size="10.00">BLOCK</text>
</g>
<!-- reports -->
<g id="node7" class="node">
<title>reports</title>
<path fill="#f3f4f6" stroke="#374151" d="M1700.5,-754C1700.5,-754 1617.5,-754 1617.5,-754 1611.5,-754 1605.5,-748 1605.5,-742 1605.5,-742 1605.5,-728 1605.5,-728 1605.5,-722 1611.5,-716 1617.5,-716 1617.5,-716 1700.5,-716 1700.5,-716 1706.5,-716 1712.5,-722 1712.5,-728 1712.5,-728 1712.5,-742 1712.5,-742 1712.5,-748 1706.5,-754 1700.5,-754"/>
<text text-anchor="middle" x="1659" y="-738.4" font-family="Arial" font-size="12.00">Security Reports</text>
<text text-anchor="middle" x="1659" y="-725.4" font-family="Arial" font-size="12.00">JSON</text>
</g>
<!-- semgrep&#45;&gt;reports -->
<g id="edge6" class="edge">
<title>semgrep&#45;&gt;reports</title>
<path fill="none" stroke="#4b5563" d="M1391,-719.25C1391,-722.79 1391,-725.4 1391,-725.4 1391,-725.4 1597.41,-725.4 1597.41,-725.4"/>
<polygon fill="#4b5563" stroke="#4b5563" points="1597.41,-728.2 1605.41,-725.4 1597.41,-722.6 1597.41,-728.2"/>
</g>
<!-- trivy&#45;&gt;reports -->
<g id="edge7" class="edge">
<title>trivy&#45;&gt;reports</title>
<path fill="none" stroke="#4b5563" d="M1482,-820.69C1482,-792.82 1482,-744.6 1482,-744.6 1482,-744.6 1597.41,-744.6 1597.41,-744.6"/>
<polygon fill="#4b5563" stroke="#4b5563" points="1597.41,-747.4 1605.41,-744.6 1597.41,-741.8 1597.41,-747.4"/>
</g>
<!-- zap&#45;&gt;reports -->
<g id="edge8" class="edge">
<title>zap&#45;&gt;reports</title>
<path fill="none" stroke="#4b5563" d="M1431,-750.77C1431,-744.07 1431,-738.2 1431,-738.2 1431,-738.2 1597.26,-738.2 1597.26,-738.2"/>
<polygon fill="#4b5563" stroke="#4b5563" points="1597.26,-741 1605.26,-738.2 1597.26,-735.4 1597.26,-741"/>
</g>
<!-- webhook_scan -->
<g id="node8" class="node">
<title>webhook_scan</title>
<path fill="#d1fae5" stroke="#374151" d="M96,-579C96,-579 28,-579 28,-579 22,-579 16,-573 16,-567 16,-567 16,-553 16,-553 16,-547 22,-541 28,-541 28,-541 96,-541 96,-541 102,-541 108,-547 108,-553 108,-553 108,-567 108,-567 108,-573 102,-579 96,-579"/>
<text text-anchor="middle" x="62" y="-563.4" font-family="Arial" font-size="12.00">Webhook</text>
<text text-anchor="middle" x="62" y="-550.4" font-family="Arial" font-size="12.00">/security&#45;scan</text>
</g>
<!-- reports&#45;&gt;webhook_scan -->
<g id="edge9" class="edge">
<title>reports&#45;&gt;webhook_scan</title>
<path fill="none" stroke="#4b5563" d="M1605.41,-731.8C1327.37,-731.8 62,-731.8 62,-731.8 62,-731.8 62,-587.04 62,-587.04"/>
<polygon fill="#4b5563" stroke="#4b5563" points="64.8,-587.04 62,-579.04 59.2,-587.04 64.8,-587.04"/>
</g>
<!-- parse -->
<g id="node9" class="node">
<title>parse</title>
<path fill="#d1fae5" stroke="#374151" d="M254,-578C254,-578 183,-578 183,-578 177,-578 171,-572 171,-566 171,-566 171,-554 171,-554 171,-548 177,-542 183,-542 183,-542 254,-542 254,-542 260,-542 266,-548 266,-554 266,-554 266,-566 266,-566 266,-572 260,-578 254,-578"/>
<text text-anchor="middle" x="218.5" y="-556.9" font-family="Arial" font-size="12.00">Parse Reports</text>
</g>
<!-- webhook_scan&#45;&gt;parse -->
<g id="edge10" class="edge">
<title>webhook_scan&#45;&gt;parse</title>
<path fill="none" stroke="#4b5563" d="M108.11,-560C108.11,-560 162.82,-560 162.82,-560"/>
<polygon fill="#4b5563" stroke="#4b5563" points="162.82,-562.8 170.82,-560 162.82,-557.2 162.82,-562.8"/>
</g>
<!-- normalize -->
<g id="node10" class="node">
<title>normalize</title>
<path fill="#d1fae5" stroke="#374151" d="M440,-578C440,-578 341,-578 341,-578 335,-578 329,-572 329,-566 329,-566 329,-554 329,-554 329,-548 335,-542 341,-542 341,-542 440,-542 440,-542 446,-542 452,-548 452,-554 452,-554 452,-566 452,-566 452,-572 446,-578 440,-578"/>
<text text-anchor="middle" x="390.5" y="-556.9" font-family="Arial" font-size="12.00">Normalize Findings</text>
</g>
<!-- parse&#45;&gt;normalize -->
<g id="edge11" class="edge">
<title>parse&#45;&gt;normalize</title>
<path fill="none" stroke="#4b5563" d="M266.41,-560C266.41,-560 320.99,-560 320.99,-560"/>
<polygon fill="#4b5563" stroke="#4b5563" points="320.99,-562.8 328.99,-560 320.99,-557.2 320.99,-562.8"/>
</g>
<!-- score -->
<g id="node11" class="node">
<title>score</title>
<path fill="#d1fae5" stroke="#374151" d="M612,-578C612,-578 527,-578 527,-578 521,-578 515,-572 515,-566 515,-566 515,-554 515,-554 515,-548 521,-542 527,-542 527,-542 612,-542 612,-542 618,-542 624,-548 624,-554 624,-554 624,-566 624,-566 624,-572 618,-578 612,-578"/>
<text text-anchor="middle" x="569.5" y="-556.9" font-family="Arial" font-size="12.00">Risk Pre&#45;Scoring</text>
</g>
<!-- normalize&#45;&gt;score -->
<g id="edge12" class="edge">
<title>normalize&#45;&gt;score</title>
<path fill="none" stroke="#4b5563" d="M452.1,-560C452.1,-560 506.97,-560 506.97,-560"/>
<polygon fill="#4b5563" stroke="#4b5563" points="506.97,-562.8 514.97,-560 506.97,-557.2 506.97,-562.8"/>
</g>
<!-- gate -->
<g id="node12" class="node">
<title>gate</title>
<path fill="#dcfce7" stroke="#374151" d="M816,-579C816,-579 699,-579 699,-579 693,-579 687,-573 687,-567 687,-567 687,-553 687,-553 687,-547 693,-541 699,-541 699,-541 816,-541 816,-541 822,-541 828,-547 828,-553 828,-553 828,-567 828,-567 828,-573 822,-579 816,-579"/>
<text text-anchor="middle" x="757.5" y="-563.4" font-family="Arial" font-size="12.00">Security Decision Gate</text>
<text text-anchor="middle" x="757.5" y="-550.4" font-family="Arial" font-size="12.00">ALLOW / BLOCK</text>
</g>
<!-- score&#45;&gt;gate -->
<g id="edge13" class="edge">
<title>score&#45;&gt;gate</title>
<path fill="none" stroke="#4b5563" d="M624.13,-560C624.13,-560 678.95,-560 678.95,-560"/>
<polygon fill="#4b5563" stroke="#4b5563" points="678.95,-562.8 686.95,-560 678.95,-557.2 678.95,-562.8"/>
</g>
<!-- gate&#45;&gt;actions -->
<g id="edge18" class="edge">
<title>gate&#45;&gt;actions</title>
<path fill="none" stroke="#4b5563" d="M822,-579.3C822,-606.01 822,-651 822,-651 822,-651 989.73,-651 989.73,-651"/>
<polygon fill="#4b5563" stroke="#4b5563" points="989.73,-653.8 997.73,-651 989.73,-648.2 989.73,-653.8"/>
<text text-anchor="middle" x="898.5" y="-613" font-family="Arial" font-size="10.00">decision response</text>
</g>
<!-- format -->
<g id="node13" class="node">
<title>format</title>
<path fill="#d1fae5" stroke="#374151" d="M1114,-577C1114,-577 981,-577 981,-577 975,-577 969,-571 969,-565 969,-565 969,-553 969,-553 969,-547 975,-541 981,-541 981,-541 1114,-541 1114,-541 1120,-541 1126,-547 1126,-553 1126,-553 1126,-565 1126,-565 1126,-571 1120,-577 1114,-577"/>
<text text-anchor="middle" x="1047.5" y="-555.9" font-family="Arial" font-size="12.00">Format Dashboard Report</text>
</g>
<!-- gate&#45;&gt;format -->
<g id="edge14" class="edge">
<title>gate&#45;&gt;format</title>
<path fill="none" stroke="#4b5563" d="M828.07,-559C828.07,-559 960.94,-559 960.94,-559"/>
<polygon fill="#4b5563" stroke="#4b5563" points="960.94,-561.8 968.94,-559 960.94,-556.2 960.94,-561.8"/>
</g>
<!-- api -->
<g id="node14" class="node">
<title>api</title>
<path fill="#dbeafe" stroke="#374151" d="M1452,-423C1452,-423 1330,-423 1330,-423 1324,-423 1318,-417 1318,-411 1318,-411 1318,-399 1318,-399 1318,-393 1324,-387 1330,-387 1330,-387 1452,-387 1452,-387 1458,-387 1464,-393 1464,-399 1464,-399 1464,-411 1464,-411 1464,-417 1458,-423 1452,-423"/>
<text text-anchor="middle" x="1391" y="-401.9" font-family="Arial" font-size="12.00">FastAPI Dashboard API</text>
</g>
<!-- format&#45;&gt;api -->
<g id="edge15" class="edge">
<title>format&#45;&gt;api</title>
<path fill="none" stroke="#4b5563" d="M1122,-540.97C1122,-500.7 1122,-407 1122,-407 1122,-407 1309.85,-407 1309.85,-407"/>
<polygon fill="#4b5563" stroke="#4b5563" points="1309.85,-409.8 1317.85,-407 1309.85,-404.2 1309.85,-409.8"/>
</g>
<!-- db -->
<g id="node15" class="node">
<title>db</title>
<path fill="#e0e7ff" stroke="#374151" d="M1732,-420.48C1732,-423.11 1699.28,-425.25 1659,-425.25 1618.72,-425.25 1586,-423.11 1586,-420.48 1586,-420.48 1586,-377.52 1586,-377.52 1586,-374.89 1618.72,-372.75 1659,-372.75 1699.28,-372.75 1732,-374.89 1732,-377.52 1732,-377.52 1732,-420.48 1732,-420.48"/>
<path fill="none" stroke="#374151" d="M1732,-420.48C1732,-417.84 1699.28,-415.7 1659,-415.7 1618.72,-415.7 1586,-417.84 1586,-420.48"/>
<text text-anchor="middle" x="1659" y="-402.4" font-family="Arial" font-size="12.00">SQLite Database</text>
<text text-anchor="middle" x="1659" y="-389.4" font-family="Arial" font-size="12.00">Scan History + Findings</text>
</g>
<!-- api&#45;&gt;db -->
<g id="edge16" class="edge">
<title>api&#45;&gt;db</title>
<path fill="none" stroke="#4b5563" d="M1464.23,-405C1464.23,-405 1577.86,-405 1577.86,-405"/>
<polygon fill="#4b5563" stroke="#4b5563" points="1577.86,-407.8 1585.86,-405 1577.86,-402.2 1577.86,-407.8"/>
</g>
<!-- ui -->
<g id="node16" class="node">
<title>ui</title>
<path fill="#dbeafe" stroke="#374151" d="M1962,-411C1962,-411 1861,-411 1861,-411 1855,-411 1849,-405 1849,-399 1849,-399 1849,-385 1849,-385 1849,-379 1855,-373 1861,-373 1861,-373 1962,-373 1962,-373 1968,-373 1974,-379 1974,-385 1974,-385 1974,-399 1974,-399 1974,-405 1968,-411 1962,-411"/>
<text text-anchor="middle" x="1911.5" y="-395.4" font-family="Arial" font-size="12.00">Web Dashboard</text>
<text text-anchor="middle" x="1911.5" y="-382.4" font-family="Arial" font-size="12.00">Scan Details + Chat</text>
</g>
<!-- db&#45;&gt;ui -->
<g id="edge17" class="edge">
<title>db&#45;&gt;ui</title>
<path fill="none" stroke="#4b5563" d="M1732.03,-392C1732.03,-392 1840.9,-392 1840.9,-392"/>
<polygon fill="#4b5563" stroke="#4b5563" points="1840.9,-394.8 1848.9,-392 1840.9,-389.2 1840.9,-394.8"/>
</g>
<!-- chat_hook -->
<g id="node18" class="node">
<title>chat_hook</title>
<path fill="#ede9fe" stroke="#374151" d="M1682,-315C1682,-315 1636,-315 1636,-315 1630,-315 1624,-309 1624,-303 1624,-303 1624,-289 1624,-289 1624,-283 1630,-277 1636,-277 1636,-277 1682,-277 1682,-277 1688,-277 1694,-283 1694,-289 1694,-289 1694,-303 1694,-303 1694,-309 1688,-315 1682,-315"/>
<text text-anchor="middle" x="1659" y="-299.4" font-family="Arial" font-size="12.00">Webhook</text>
<text text-anchor="middle" x="1659" y="-286.4" font-family="Arial" font-size="12.00">/ai&#45;chat</text>
</g>
<!-- ui&#45;&gt;chat_hook -->
<g id="edge22" class="edge">
<title>ui&#45;&gt;chat_hook</title>
<path fill="none" stroke="#4b5563" d="M1855,-372.83C1855,-347.89 1855,-307.5 1855,-307.5 1855,-307.5 1702.04,-307.5 1702.04,-307.5"/>
<polygon fill="#4b5563" stroke="#4b5563" points="1702.04,-304.7 1694.04,-307.5 1702.04,-310.3 1702.04,-304.7"/>
<text text-anchor="middle" x="1790.5" y="-377" font-family="Arial" font-size="10.00">Chat with AI</text>
</g>
<!-- source -->
<g id="node17" class="node">
<title>source</title>
<polygon fill="#f8fafc" stroke="#374151" points="1117,-417 1114,-421 1093,-421 1090,-417 978,-417 978,-379 1117,-379 1117,-417"/>
<text text-anchor="middle" x="1047.5" y="-401.4" font-family="Arial" font-size="12.00">Mounted Source Code</text>
<text text-anchor="middle" x="1047.5" y="-388.4" font-family="Arial" font-size="12.00">/workspace/source</text>
</g>
<!-- source&#45;&gt;api -->
<g id="edge21" class="edge">
<title>source&#45;&gt;api</title>
<path fill="none" stroke="#4b5563" d="M1117.01,-397C1117.01,-397 1309.74,-397 1309.74,-397"/>
<polygon fill="#4b5563" stroke="#4b5563" points="1309.74,-399.8 1317.74,-397 1309.74,-394.2 1309.74,-399.8"/>
<text text-anchor="middle" x="1196.5" y="-408" font-family="Arial" font-size="10.00">read code context</text>
</g>
<!-- source&#45;&gt;chat_hook -->
<g id="edge23" class="edge">
<title>source&#45;&gt;chat_hook</title>
<path fill="none" stroke="#4b5563" d="M1048,-378.81C1048,-349.27 1048,-296 1048,-296 1048,-296 1615.96,-296 1615.96,-296"/>
<polygon fill="#4b5563" stroke="#4b5563" points="1615.96,-298.8 1623.96,-296 1615.96,-293.2 1615.96,-298.8"/>
<text text-anchor="middle" x="1391" y="-323" font-family="Arial" font-size="10.00">source context</text>
</g>
<!-- validate -->
<g id="node19" class="node">
<title>validate</title>
<path fill="#ede9fe" stroke="#374151" d="M1945,-300C1945,-300 1878,-300 1878,-300 1872,-300 1866,-294 1866,-288 1866,-288 1866,-276 1866,-276 1866,-270 1872,-264 1878,-264 1878,-264 1945,-264 1945,-264 1951,-264 1957,-270 1957,-276 1957,-276 1957,-288 1957,-288 1957,-294 1951,-300 1945,-300"/>
<text text-anchor="middle" x="1911.5" y="-278.9" font-family="Arial" font-size="12.00">Validate Input</text>
</g>
<!-- chat_hook&#45;&gt;validate -->
<g id="edge24" class="edge">
<title>chat_hook&#45;&gt;validate</title>
<path fill="none" stroke="#4b5563" d="M1694.11,-288.5C1694.11,-288.5 1857.57,-288.5 1857.57,-288.5"/>
<polygon fill="#4b5563" stroke="#4b5563" points="1857.57,-291.3 1865.57,-288.5 1857.57,-285.7 1857.57,-291.3"/>
</g>
<!-- prompt -->
<g id="node20" class="node">
<title>prompt</title>
<path fill="#ede9fe" stroke="#374151" d="M2184,-269C2184,-269 2049,-269 2049,-269 2043,-269 2037,-263 2037,-257 2037,-257 2037,-245 2037,-245 2037,-239 2043,-233 2049,-233 2049,-233 2184,-233 2184,-233 2190,-233 2196,-239 2196,-245 2196,-245 2196,-257 2196,-257 2196,-263 2190,-269 2184,-269"/>
<text text-anchor="middle" x="2116.5" y="-247.9" font-family="Arial" font-size="12.00">Build Remediation Prompt</text>
</g>
<!-- validate&#45;&gt;prompt -->
<g id="edge25" class="edge">
<title>validate&#45;&gt;prompt</title>
<path fill="none" stroke="#4b5563" d="M1912,-263.81C1912,-258.7 1912,-254.5 1912,-254.5 1912,-254.5 2028.85,-254.5 2028.85,-254.5"/>
<polygon fill="#4b5563" stroke="#4b5563" points="2028.85,-257.3 2036.85,-254.5 2028.85,-251.7 2028.85,-257.3"/>
</g>
<!-- router -->
<g id="node21" class="node">
<title>router</title>
<path fill="#f5f3ff" stroke="#374151" d="M2364,-247C2364,-247 2271,-247 2271,-247 2265,-247 2259,-241 2259,-235 2259,-235 2259,-221 2259,-221 2259,-215 2265,-209 2271,-209 2271,-209 2364,-209 2364,-209 2370,-209 2376,-215 2376,-221 2376,-221 2376,-235 2376,-235 2376,-241 2370,-247 2364,-247"/>
<text text-anchor="middle" x="2317.5" y="-231.4" font-family="Arial" font-size="12.00">AI Provider Router</text>
<text text-anchor="middle" x="2317.5" y="-218.4" font-family="Arial" font-size="12.00">AI_PROVIDER</text>
</g>
<!-- prompt&#45;&gt;router -->
<g id="edge26" class="edge">
<title>prompt&#45;&gt;router</title>
<path fill="none" stroke="#4b5563" d="M2196.23,-240C2196.23,-240 2250.95,-240 2250.95,-240"/>
<polygon fill="#4b5563" stroke="#4b5563" points="2250.95,-242.8 2258.95,-240 2250.95,-237.2 2250.95,-242.8"/>
</g>
<!-- ollama -->
<g id="node23" class="node">
<title>ollama</title>
<path fill="#ffe4e6" stroke="#374151" d="M1465.5,-124C1465.5,-124 1316.5,-124 1316.5,-124 1310.5,-124 1304.5,-118 1304.5,-112 1304.5,-112 1304.5,-98 1304.5,-98 1304.5,-92 1310.5,-86 1316.5,-86 1316.5,-86 1465.5,-86 1465.5,-86 1471.5,-86 1477.5,-92 1477.5,-98 1477.5,-98 1477.5,-112 1477.5,-112 1477.5,-118 1471.5,-124 1465.5,-124"/>
<text text-anchor="middle" x="1391" y="-108.4" font-family="Arial" font-size="12.00">Ollama Local / LAN</text>
<text text-anchor="middle" x="1391" y="-95.4" font-family="Arial" font-size="12.00">deepseek&#45;r1:7b / qwen2.5:3b</text>
</g>
<!-- router&#45;&gt;ollama -->
<g id="edge27" class="edge">
<title>router&#45;&gt;ollama</title>
<path fill="none" stroke="#4b5563" d="M2318,-208.78C2318,-174.19 2318,-105 2318,-105 2318,-105 1485.79,-105 1485.79,-105"/>
<polygon fill="#4b5563" stroke="#4b5563" points="1485.79,-102.2 1477.79,-105 1485.79,-107.8 1485.79,-102.2"/>
<text text-anchor="middle" x="1911.5" y="-88" font-family="Arial" font-size="10.00">ollama</text>
</g>
<!-- openai -->
<g id="node24" class="node">
<title>openai</title>
<path fill="#ffe4e6" stroke="#374151" d="M1455,-194C1455,-194 1327,-194 1327,-194 1321,-194 1315,-188 1315,-182 1315,-182 1315,-168 1315,-168 1315,-162 1321,-156 1327,-156 1327,-156 1455,-156 1455,-156 1461,-156 1467,-162 1467,-168 1467,-168 1467,-182 1467,-182 1467,-188 1461,-194 1455,-194"/>
<text text-anchor="middle" x="1391" y="-178.4" font-family="Arial" font-size="12.00">OpenAI&#45;Compatible API</text>
<text text-anchor="middle" x="1391" y="-165.4" font-family="Arial" font-size="12.00">GPT / compatible models</text>
</g>
<!-- router&#45;&gt;openai -->
<g id="edge28" class="edge">
<title>router&#45;&gt;openai</title>
<path fill="none" stroke="#4b5563" d="M2289,-208.9C2289,-191.55 2289,-168.67 2289,-168.67 2289,-168.67 1475.18,-168.67 1475.18,-168.67"/>
<polygon fill="#4b5563" stroke="#4b5563" points="1475.18,-165.87 1467.18,-168.67 1475.18,-171.47 1475.18,-165.87"/>
<text text-anchor="middle" x="1911.5" y="-163" font-family="Arial" font-size="10.00">openai</text>
</g>
<!-- claude -->
<g id="node25" class="node">
<title>claude</title>
<path fill="#ffe4e6" stroke="#374151" d="M1446,-54C1446,-54 1336,-54 1336,-54 1330,-54 1324,-48 1324,-42 1324,-42 1324,-28 1324,-28 1324,-22 1330,-16 1336,-16 1336,-16 1446,-16 1446,-16 1452,-16 1458,-22 1458,-28 1458,-28 1458,-42 1458,-42 1458,-48 1452,-54 1446,-54"/>
<text text-anchor="middle" x="1391" y="-38.4" font-family="Arial" font-size="12.00">Anthropic Claude API</text>
<text text-anchor="middle" x="1391" y="-25.4" font-family="Arial" font-size="12.00">Claude models</text>
</g>
<!-- router&#45;&gt;claude -->
<g id="edge29" class="edge">
<title>router&#45;&gt;claude</title>
<path fill="none" stroke="#4b5563" d="M2347,-208.89C2347,-159 2347,-28.67 2347,-28.67 2347,-28.67 1466.22,-28.67 1466.22,-28.67"/>
<polygon fill="#4b5563" stroke="#4b5563" points="1466.22,-25.87 1458.22,-28.67 1466.22,-31.47 1466.22,-25.87"/>
<text text-anchor="middle" x="1911.5" y="-10" font-family="Arial" font-size="10.00">anthropic</text>
</g>
<!-- parse_ai -->
<g id="node22" class="node">
<title>parse_ai</title>
<path fill="#ede9fe" stroke="#374151" d="M1708,-245C1708,-245 1610,-245 1610,-245 1604,-245 1598,-239 1598,-233 1598,-233 1598,-221 1598,-221 1598,-215 1604,-209 1610,-209 1610,-209 1708,-209 1708,-209 1714,-209 1720,-215 1720,-221 1720,-221 1720,-233 1720,-233 1720,-239 1714,-245 1708,-245"/>
<text text-anchor="middle" x="1659" y="-223.9" font-family="Arial" font-size="12.00">Parse AI Response</text>
</g>
<!-- parse_ai&#45;&gt;ui -->
<g id="edge33" class="edge">
<title>parse_ai&#45;&gt;ui</title>
<path fill="none" stroke="#4b5563" d="M1720.15,-239C1779.61,-239 1861,-239 1861,-239 1861,-239 1861,-364.93 1861,-364.93"/>
<polygon fill="#4b5563" stroke="#4b5563" points="1858.2,-364.93 1861,-372.93 1863.8,-364.93 1858.2,-364.93"/>
<text text-anchor="middle" x="1790.5" y="-327" font-family="Arial" font-size="10.00">answer</text>
</g>
<!-- ollama&#45;&gt;parse_ai -->
<g id="edge30" class="edge">
<title>ollama&#45;&gt;parse_ai</title>
<path fill="none" stroke="#4b5563" d="M1473,-124.06C1473,-158.38 1473,-227 1473,-227 1473,-227 1589.84,-227 1589.84,-227"/>
<polygon fill="#4b5563" stroke="#4b5563" points="1589.84,-229.8 1597.84,-227 1589.84,-224.2 1589.84,-229.8"/>
</g>
<!-- openai&#45;&gt;parse_ai -->
<g id="edge31" class="edge">
<title>openai&#45;&gt;parse_ai</title>
<path fill="none" stroke="#4b5563" d="M1467.09,-181.33C1539.99,-181.33 1639,-181.33 1639,-181.33 1639,-181.33 1639,-200.95 1639,-200.95"/>
<polygon fill="#4b5563" stroke="#4b5563" points="1636.2,-200.95 1639,-208.95 1641.8,-200.95 1636.2,-200.95"/>
</g>
<!-- claude&#45;&gt;parse_ai -->
<g id="edge32" class="edge">
<title>claude&#45;&gt;parse_ai</title>
<path fill="none" stroke="#4b5563" d="M1458.03,-41.33C1543.4,-41.33 1680,-41.33 1680,-41.33 1680,-41.33 1680,-200.86 1680,-200.86"/>
<polygon fill="#4b5563" stroke="#4b5563" points="1677.2,-200.86 1680,-208.86 1682.8,-200.86 1677.2,-200.86"/>
</g>
</g>
</svg>
